<mxfile host="app.diagrams.net" agent="Mozilla/5.0 (X11; Linux x86_64; rv:136.0) Gecko/20100101 Firefox/136.0" version="26.2.13">
  <diagram name="Page-1" id="2CgKJao0rwc-YRcNz2wD">
    <mxGraphModel dx="1188" dy="766" grid="1" gridSize="10" guides="1" tooltips="1" connect="1" arrows="1" fold="1" page="1" pageScale="1" pageWidth="850" pageHeight="1100" math="0" shadow="0">
      <root>
        <mxCell id="0" />
        <mxCell id="1" parent="0" />
        <mxCell id="UYRTGecKwHMtG6VceSX3-5" style="edgeStyle=orthogonalEdgeStyle;rounded=0;orthogonalLoop=1;jettySize=auto;html=1;" parent="1" source="UYRTGecKwHMtG6VceSX3-3" target="UYRTGecKwHMtG6VceSX3-4" edge="1">
          <mxGeometry relative="1" as="geometry" />
        </mxCell>
        <mxCell id="UYRTGecKwHMtG6VceSX3-3" value="Check level one" style="rounded=0;whiteSpace=wrap;html=1;" parent="1" vertex="1">
          <mxGeometry x="80" y="130" width="120" height="60" as="geometry" />
        </mxCell>
        <mxCell id="UYRTGecKwHMtG6VceSX3-6" value="&lt;div&gt;Yes&lt;/div&gt;" style="edgeStyle=orthogonalEdgeStyle;rounded=0;orthogonalLoop=1;jettySize=auto;html=1;" parent="1" source="UYRTGecKwHMtG6VceSX3-4" edge="1">
          <mxGeometry relative="1" as="geometry">
            <mxPoint x="590" y="160" as="targetPoint" />
          </mxGeometry>
        </mxCell>
        <mxCell id="UYRTGecKwHMtG6VceSX3-39" style="edgeStyle=orthogonalEdgeStyle;rounded=0;orthogonalLoop=1;jettySize=auto;html=1;entryX=0;entryY=0;entryDx=0;entryDy=0;" parent="1" source="UYRTGecKwHMtG6VceSX3-4" target="UYRTGecKwHMtG6VceSX3-35" edge="1">
          <mxGeometry relative="1" as="geometry">
            <Array as="points">
              <mxPoint x="260" y="180" />
              <mxPoint x="260" y="510" />
              <mxPoint x="330" y="510" />
            </Array>
          </mxGeometry>
        </mxCell>
        <mxCell id="UYRTGecKwHMtG6VceSX3-4" value="Success?" style="rhombus;whiteSpace=wrap;html=1;" parent="1" vertex="1">
          <mxGeometry x="310" y="120" width="80" height="80" as="geometry" />
        </mxCell>
        <mxCell id="UYRTGecKwHMtG6VceSX3-11" style="edgeStyle=orthogonalEdgeStyle;rounded=0;orthogonalLoop=1;jettySize=auto;html=1;" parent="1" source="UYRTGecKwHMtG6VceSX3-9" target="UYRTGecKwHMtG6VceSX3-12" edge="1">
          <mxGeometry relative="1" as="geometry">
            <mxPoint x="140" y="260" as="targetPoint" />
            <Array as="points">
              <mxPoint x="650" y="240" />
              <mxPoint x="140" y="240" />
            </Array>
          </mxGeometry>
        </mxCell>
        <mxCell id="UYRTGecKwHMtG6VceSX3-9" value="Add level one points" style="rounded=0;whiteSpace=wrap;html=1;" parent="1" vertex="1">
          <mxGeometry x="590" y="130" width="120" height="60" as="geometry" />
        </mxCell>
        <mxCell id="UYRTGecKwHMtG6VceSX3-18" value="" style="group" parent="1" vertex="1" connectable="0">
          <mxGeometry x="80" y="270" width="620" height="90" as="geometry" />
        </mxCell>
        <mxCell id="UYRTGecKwHMtG6VceSX3-15" style="edgeStyle=orthogonalEdgeStyle;rounded=0;orthogonalLoop=1;jettySize=auto;html=1;" parent="UYRTGecKwHMtG6VceSX3-18" source="UYRTGecKwHMtG6VceSX3-12" edge="1">
          <mxGeometry relative="1" as="geometry">
            <mxPoint x="230" y="40" as="targetPoint" />
          </mxGeometry>
        </mxCell>
        <mxCell id="UYRTGecKwHMtG6VceSX3-12" value="Check level 2" style="rounded=0;whiteSpace=wrap;html=1;" parent="UYRTGecKwHMtG6VceSX3-18" vertex="1">
          <mxGeometry y="10" width="120" height="60" as="geometry" />
        </mxCell>
        <mxCell id="UYRTGecKwHMtG6VceSX3-17" value="&lt;div&gt;Yes&lt;/div&gt;" style="edgeStyle=orthogonalEdgeStyle;rounded=0;orthogonalLoop=1;jettySize=auto;html=1;entryX=0;entryY=0.5;entryDx=0;entryDy=0;" parent="UYRTGecKwHMtG6VceSX3-18" source="UYRTGecKwHMtG6VceSX3-14" target="UYRTGecKwHMtG6VceSX3-16" edge="1">
          <mxGeometry relative="1" as="geometry" />
        </mxCell>
        <mxCell id="UYRTGecKwHMtG6VceSX3-14" value="Success?" style="rhombus;whiteSpace=wrap;html=1;" parent="UYRTGecKwHMtG6VceSX3-18" vertex="1">
          <mxGeometry x="230" width="80" height="80" as="geometry" />
        </mxCell>
        <mxCell id="UYRTGecKwHMtG6VceSX3-16" value="Add level two points" style="rounded=0;whiteSpace=wrap;html=1;" parent="UYRTGecKwHMtG6VceSX3-18" vertex="1">
          <mxGeometry x="500" y="10" width="120" height="60" as="geometry" />
        </mxCell>
        <mxCell id="UYRTGecKwHMtG6VceSX3-44" value="No" style="text;html=1;align=center;verticalAlign=middle;resizable=0;points=[];autosize=1;strokeColor=none;fillColor=none;" parent="UYRTGecKwHMtG6VceSX3-18" vertex="1">
          <mxGeometry x="200" y="50" width="40" height="30" as="geometry" />
        </mxCell>
        <mxCell id="UYRTGecKwHMtG6VceSX3-25" style="edgeStyle=orthogonalEdgeStyle;rounded=0;orthogonalLoop=1;jettySize=auto;html=1;" parent="1" source="UYRTGecKwHMtG6VceSX3-16" target="UYRTGecKwHMtG6VceSX3-21" edge="1">
          <mxGeometry relative="1" as="geometry">
            <Array as="points">
              <mxPoint x="640" y="380" />
              <mxPoint x="140" y="380" />
            </Array>
          </mxGeometry>
        </mxCell>
        <mxCell id="UYRTGecKwHMtG6VceSX3-20" style="edgeStyle=orthogonalEdgeStyle;rounded=0;orthogonalLoop=1;jettySize=auto;html=1;" parent="1" source="UYRTGecKwHMtG6VceSX3-21" edge="1">
          <mxGeometry relative="1" as="geometry">
            <mxPoint x="310" y="440" as="targetPoint" />
          </mxGeometry>
        </mxCell>
        <mxCell id="UYRTGecKwHMtG6VceSX3-21" value="&lt;div&gt;Check level 3&lt;/div&gt;" style="rounded=0;whiteSpace=wrap;html=1;" parent="1" vertex="1">
          <mxGeometry x="80" y="410" width="120" height="60" as="geometry" />
        </mxCell>
        <mxCell id="UYRTGecKwHMtG6VceSX3-22" value="&lt;div&gt;Yes&lt;/div&gt;" style="edgeStyle=orthogonalEdgeStyle;rounded=0;orthogonalLoop=1;jettySize=auto;html=1;entryX=0;entryY=0.5;entryDx=0;entryDy=0;" parent="1" source="UYRTGecKwHMtG6VceSX3-23" target="UYRTGecKwHMtG6VceSX3-24" edge="1">
          <mxGeometry relative="1" as="geometry" />
        </mxCell>
        <mxCell id="UYRTGecKwHMtG6VceSX3-36" value="No" style="edgeStyle=orthogonalEdgeStyle;rounded=0;orthogonalLoop=1;jettySize=auto;html=1;" parent="1" source="UYRTGecKwHMtG6VceSX3-23" target="UYRTGecKwHMtG6VceSX3-35" edge="1">
          <mxGeometry relative="1" as="geometry" />
        </mxCell>
        <mxCell id="UYRTGecKwHMtG6VceSX3-23" value="Success?" style="rhombus;whiteSpace=wrap;html=1;" parent="1" vertex="1">
          <mxGeometry x="310" y="400" width="80" height="80" as="geometry" />
        </mxCell>
        <mxCell id="UYRTGecKwHMtG6VceSX3-37" style="edgeStyle=orthogonalEdgeStyle;rounded=0;orthogonalLoop=1;jettySize=auto;html=1;" parent="1" source="UYRTGecKwHMtG6VceSX3-24" target="UYRTGecKwHMtG6VceSX3-35" edge="1">
          <mxGeometry relative="1" as="geometry">
            <Array as="points">
              <mxPoint x="640" y="500" />
              <mxPoint x="370" y="500" />
            </Array>
          </mxGeometry>
        </mxCell>
        <mxCell id="UYRTGecKwHMtG6VceSX3-24" value="Add level three points" style="rounded=0;whiteSpace=wrap;html=1;" parent="1" vertex="1">
          <mxGeometry x="580" y="410" width="120" height="60" as="geometry" />
        </mxCell>
        <mxCell id="UYRTGecKwHMtG6VceSX3-35" value="Is bonus?" style="rhombus;whiteSpace=wrap;html=1;" parent="1" vertex="1">
          <mxGeometry x="310" y="540" width="80" height="80" as="geometry" />
        </mxCell>
        <mxCell id="UYRTGecKwHMtG6VceSX3-41" value="No" style="text;html=1;align=center;verticalAlign=middle;resizable=0;points=[];autosize=1;strokeColor=none;fillColor=none;" parent="1" vertex="1">
          <mxGeometry x="260" y="180" width="40" height="30" as="geometry" />
        </mxCell>
        <mxCell id="UYRTGecKwHMtG6VceSX3-46" style="edgeStyle=orthogonalEdgeStyle;rounded=0;orthogonalLoop=1;jettySize=auto;html=1;exitX=0;exitY=1;exitDx=0;exitDy=0;entryX=0.112;entryY=0.348;entryDx=0;entryDy=0;entryPerimeter=0;" parent="1" source="UYRTGecKwHMtG6VceSX3-14" target="UYRTGecKwHMtG6VceSX3-35" edge="1">
          <mxGeometry relative="1" as="geometry">
            <Array as="points">
              <mxPoint x="240" y="330" />
              <mxPoint x="240" y="568" />
            </Array>
          </mxGeometry>
        </mxCell>
      </root>
    </mxGraphModel>
  </diagram>
</mxfile>
